<svg id="SvgjsSvg1001" width="512" height="512" xmlns="http://www.w3.org/2000/svg" version="1.1" xmlns:xlink="http://www.w3.org/1999/xlink" xmlns:svgjs="http://svgjs.com/svgjs"><defs id="SvgjsDefs1002"></defs><g id="SvgjsG1008" transform="matrix(0.9167,0,0,0.9167,11.995200000000011,11.995200000000011)"><svg xmlns="http://www.w3.org/2000/svg" viewBox="0 0 512 512" width="512" height="512"><path d="M257,0C116.39,0,0,114.39,0,255s116.39,257,257,257s255-116.39,255-257S397.61,0,257,0z M287,392c0,16.54-13.47,30-30,30
			c-16.54,0-30-13.46-30-30V240c0-16.54,13.46-30,30-30c16.53,0,30,13.46,30,30V392z M257,150c-16.54,0-30-13.46-30-30
			s13.46-30,30-30c16.53,0,30,13.46,30,30S273.53,150,257,150z" fill="#0099cc" class="color000 svgShape"></path></svg></g></svg>